<svg class="border shadow-md" viewBox="0 0 752.4 752.4" style="width: 752.4px; height: 752.4px;" xmlns="http://www.w3.org/2000/svg" preserveAspectRatio="none"><rect class="bg" id="bg" x="0" y="0" width="752.4" height="752.4" fill="#ffffff"/><path d="M 0 -41.8 L 0 -41.80&#xA;                L 50.16 -16.80&#xA;                L 150.48 -41.80 L 150.48 -41.80&#xA;                L 252.48 -10.80&#xA;                L 300.96 -41.80 L 300.96 -41.80&#xA;                L 389.96 -20.90&#xA;                L 451.43999999999994 -41.80 L 451.43999999999994 -41.80&#xA;                L 526.44 -9.80&#xA;                L 601.92 -41.80 L 601.92 -41.80&#xA;                L 685.92 -20.90&#xA;                L 752.4 -41.80 L 752.4 -41.80&#xA;                L 802.56 -20.80&#xA;                L 902.88 -41.80  V 752.40 H 0 V -41.80 Z" fill="#52CBFA"/><path d="M 0 0 L 0 0.00&#xA;                L 54.00 20.90&#xA;                L 150.48 0.00 L 150.48 0.00&#xA;                L 205.48 20.90&#xA;                L 300.96 0.00 L 300.96 0.00&#xA;                L 351.12 22.00&#xA;                L 451.43999999999994 0.00 L 451.43999999999994 0.00&#xA;                L 515.44 20.90&#xA;                L 601.92 0.00 L 601.92 0.00&#xA;                L 652.08 30.00&#xA;                L 752.4 0.00 L 752.4 0.00&#xA;                L 802.56 32.00&#xA;                L 902.88 0.00  V 752.40 H 0 V 0.00 Z" fill="#5acdfa"/><path d="M 0 41.8 L 0 41.80&#xA;                L 50.16 74.80&#xA;                L 150.48 41.80 L 150.48 41.80&#xA;                L 200.64 63.80&#xA;                L 300.96 41.80 L 300.96 41.80&#xA;                L 379.96 78.80&#xA;                L 451.43999999999994 41.80 L 451.43999999999994 41.80&#xA;                L 543.44 74.80&#xA;                L 601.92 41.80 L 601.92 41.80&#xA;                L 652.08 72.80&#xA;                L 752.4 41.80 L 752.4 41.80&#xA;                L 827.40 79.80&#xA;                L 902.88 41.80  V 752.40 H 0 V 41.80 Z" fill="#62cffa"/><path d="M 0 83.6 L 0 83.60&#xA;                L 51.00 104.50&#xA;                L 150.48 83.60 L 150.48 83.60&#xA;                L 214.48 104.50&#xA;                L 300.96 83.60 L 300.96 83.60&#xA;                L 369.96 108.60&#xA;                L 451.43999999999994 83.60 L 451.43999999999994 83.60&#xA;                L 501.60 104.50&#xA;                L 601.92 83.60 L 601.92 83.60&#xA;                L 690.92 108.60&#xA;                L 752.4 83.60 L 752.4 83.60&#xA;                L 802.56 114.60&#xA;                L 902.88 83.60  V 752.40 H 0 V 83.60 Z" fill="#6ad1fa"/><path d="M 0 125.39999999999999 L 0 125.40&#xA;                L 50.16 162.40&#xA;                L 150.48 125.40 L 150.48 125.40&#xA;                L 215.48 146.30&#xA;                L 300.96 125.40 L 300.96 125.40&#xA;                L 375.96 146.30&#xA;                L 451.43999999999994 125.40 L 451.43999999999994 125.40&#xA;                L 533.44 146.40&#xA;                L 601.92 125.40 L 601.92 125.40&#xA;                L 652.08 155.40&#xA;                L 752.4 125.40 L 752.4 125.40&#xA;                L 802.56 152.40&#xA;                L 902.88 125.40  V 752.40 H 0 V 125.40 Z" fill="#72d3fa"/><path d="M 0 167.2 L 0 167.20&#xA;                L 66.00 188.10&#xA;                L 150.48 167.20 L 150.48 167.20&#xA;                L 200.64 188.10&#xA;                L 300.96 167.20 L 300.96 167.20&#xA;                L 355.96 202.20&#xA;                L 451.43999999999994 167.20 L 451.43999999999994 167.20&#xA;                L 502.44 188.10&#xA;                L 601.92 167.20 L 601.92 167.20&#xA;                L 652.08 188.10&#xA;                L 752.4 167.20 L 752.4 167.20&#xA;                L 812.40 188.10&#xA;                L 902.88 167.20  V 752.40 H 0 V 167.20 Z" fill="#7ad5fa"/><path d="M 0 209 L 0 209.00&#xA;                L 50.16 229.90&#xA;                L 150.48 209.00 L 150.48 209.00&#xA;                L 200.64 245.00&#xA;                L 300.96 209.00 L 300.96 209.00&#xA;                L 384.96 229.90&#xA;                L 451.43999999999994 209.00 L 451.43999999999994 209.00&#xA;                L 501.60 239.00&#xA;                L 601.92 209.00 L 601.92 209.00&#xA;                L 672.92 246.00&#xA;                L 752.4 209.00 L 752.4 209.00&#xA;                L 811.40 229.90&#xA;                L 902.88 209.00  V 752.40 H 0 V 209.00 Z" fill="#82d7fa"/><path d="M 0 250.79999999999998 L 0 250.80&#xA;                L 50.16 272.80&#xA;                L 150.48 250.80 L 150.48 250.80&#xA;                L 216.48 271.70&#xA;                L 300.96 250.80 L 300.96 250.80&#xA;                L 358.96 272.80&#xA;                L 451.43999999999994 250.80 L 451.43999999999994 250.80&#xA;                L 503.44 271.70&#xA;                L 601.92 250.80 L 601.92 250.80&#xA;                L 674.92 271.70&#xA;                L 752.4 250.80 L 752.4 250.80&#xA;                L 802.56 286.80&#xA;                L 902.88 250.80  V 752.40 H 0 V 250.80 Z" fill="#8ad9fa"/><path d="M 0 292.59999999999997 L 0 292.60&#xA;                L 50.16 313.50&#xA;                L 150.48 292.60 L 150.48 292.60&#xA;                L 209.48 313.50&#xA;                L 300.96 292.60 L 300.96 292.60&#xA;                L 379.96 331.60&#xA;                L 451.43999999999994 292.60 L 451.43999999999994 292.60&#xA;                L 531.44 326.60&#xA;                L 601.92 292.60 L 601.92 292.60&#xA;                L 652.08 313.50&#xA;                L 752.4 292.60 L 752.4 292.60&#xA;                L 802.56 332.60&#xA;                L 902.88 292.60  V 752.40 H 0 V 292.60 Z" fill="#92dbfa"/><path d="M 0 334.4 L 0 334.40&#xA;                L 85.00 368.40&#xA;                L 150.48 334.40 L 150.48 334.40&#xA;                L 207.48 358.40&#xA;                L 300.96 334.40 L 300.96 334.40&#xA;                L 351.12 368.40&#xA;                L 451.43999999999994 334.40 L 451.43999999999994 334.40&#xA;                L 501.60 355.30&#xA;                L 601.92 334.40 L 601.92 334.40&#xA;                L 672.92 357.40&#xA;                L 752.4 334.40 L 752.4 334.40&#xA;                L 802.56 355.30&#xA;                L 902.88 334.40  V 752.40 H 0 V 334.40 Z" fill="#9addfa"/><path d="M 0 376.2 L 0 376.20&#xA;                L 111.00 400.20&#xA;                L 150.48 376.20 L 150.48 376.20&#xA;                L 205.48 417.20&#xA;                L 300.96 376.20 L 300.96 376.20&#xA;                L 351.12 407.20&#xA;                L 451.43999999999994 376.20 L 451.43999999999994 376.20&#xA;                L 556.44 397.10&#xA;                L 601.92 376.20 L 601.92 376.20&#xA;                L 686.92 397.10&#xA;                L 752.4 376.20 L 752.4 376.20&#xA;                L 802.56 397.10&#xA;                L 902.88 376.20  V 752.40 H 0 V 376.20 Z" fill="#a2dffa"/><path d="M 0 418 L 0 418.00&#xA;                L 50.16 457.00&#xA;                L 150.48 418.00 L 150.48 418.00&#xA;                L 206.48 450.00&#xA;                L 300.96 418.00 L 300.96 418.00&#xA;                L 353.96 438.90&#xA;                L 451.43999999999994 418.00 L 451.43999999999994 418.00&#xA;                L 501.60 438.90&#xA;                L 601.92 418.00 L 601.92 418.00&#xA;                L 664.92 438.90&#xA;                L 752.4 418.00 L 752.4 418.00&#xA;                L 820.40 441.00&#xA;                L 902.88 418.00  V 752.40 H 0 V 418.00 Z" fill="#aae1fa"/><path d="M 0 459.79999999999995 L 0 459.80&#xA;                L 50.16 487.80&#xA;                L 150.48 459.80 L 150.48 459.80&#xA;                L 200.64 481.80&#xA;                L 300.96 459.80 L 300.96 459.80&#xA;                L 351.12 498.80&#xA;                L 451.43999999999994 459.80 L 451.43999999999994 459.80&#xA;                L 501.60 480.70&#xA;                L 601.92 459.80 L 601.92 459.80&#xA;                L 676.92 480.70&#xA;                L 752.4 459.80 L 752.4 459.80&#xA;                L 802.56 492.80&#xA;                L 902.88 459.80  V 752.40 H 0 V 459.80 Z" fill="#b2e3fa"/><path d="M 0 501.59999999999997 L 0 501.60&#xA;                L 50.16 536.60&#xA;                L 150.48 501.60 L 150.48 501.60&#xA;                L 232.48 534.60&#xA;                L 300.96 501.60 L 300.96 501.60&#xA;                L 351.12 537.60&#xA;                L 451.43999999999994 501.60 L 451.43999999999994 501.60&#xA;                L 501.60 522.50&#xA;                L 601.92 501.60 L 601.92 501.60&#xA;                L 693.92 522.50&#xA;                L 752.4 501.60 L 752.4 501.60&#xA;                L 806.40 522.50&#xA;                L 902.88 501.60  V 752.40 H 0 V 501.60 Z" fill="#bae5fa"/><path d="M 0 543.4 L 0 543.40&#xA;                L 50.16 567.40&#xA;                L 150.48 543.40 L 150.48 543.40&#xA;                L 215.48 583.40&#xA;                L 300.96 543.40 L 300.96 543.40&#xA;                L 393.96 572.40&#xA;                L 451.43999999999994 543.40 L 451.43999999999994 543.40&#xA;                L 501.60 576.40&#xA;                L 601.92 543.40 L 601.92 543.40&#xA;                L 670.92 565.40&#xA;                L 752.4 543.40 L 752.4 543.40&#xA;                L 840.40 564.30&#xA;                L 902.88 543.40  V 752.40 H 0 V 543.40 Z" fill="#c2e7fa"/><path d="M 0 585.1999999999999 L 0 585.20&#xA;                L 95.00 606.10&#xA;                L 150.48 585.20 L 150.48 585.20&#xA;                L 200.64 622.20&#xA;                L 300.96 585.20 L 300.96 585.20&#xA;                L 364.96 606.10&#xA;                L 451.43999999999994 585.20 L 451.43999999999994 585.20&#xA;                L 512.44 606.10&#xA;                L 601.92 585.20 L 601.92 585.20&#xA;                L 669.92 606.10&#xA;                L 752.4 585.20 L 752.4 585.20&#xA;                L 802.56 622.20&#xA;                L 902.88 585.20  V 752.40 H 0 V 585.20 Z" fill="#cae9fa"/><path d="M 0 627 L 0 627.00&#xA;                L 50.16 647.90&#xA;                L 150.48 627.00 L 150.48 627.00&#xA;                L 211.48 650.00&#xA;                L 300.96 627.00 L 300.96 627.00&#xA;                L 351.96 663.00&#xA;                L 451.43999999999994 627.00 L 451.43999999999994 627.00&#xA;                L 501.60 647.90&#xA;                L 601.92 627.00 L 601.92 627.00&#xA;                L 664.92 668.00&#xA;                L 752.4 627.00 L 752.4 627.00&#xA;                L 802.56 647.90&#xA;                L 902.88 627.00  V 752.40 H 0 V 627.00 Z" fill="#d2ebfa"/><path d="M 0 668.8 L 0 668.80&#xA;                L 50.16 705.80&#xA;                L 150.48 668.80 L 150.48 668.80&#xA;                L 216.48 689.80&#xA;                L 300.96 668.80 L 300.96 668.80&#xA;                L 391.96 689.70&#xA;                L 451.43999999999994 668.80 L 451.43999999999994 668.80&#xA;                L 548.44 689.70&#xA;                L 601.92 668.80 L 601.92 668.80&#xA;                L 668.92 693.80&#xA;                L 752.4 668.80 L 752.4 668.80&#xA;                L 827.40 689.70&#xA;                L 902.88 668.80  V 752.40 H 0 V 668.80 Z" fill="#daedfa"/><path d="M 0 710.5999999999999 L 0 710.60&#xA;                L 50.16 731.50&#xA;                L 150.48 710.60 L 150.48 710.60&#xA;                L 200.64 731.50&#xA;                L 300.96 710.60 L 300.96 710.60&#xA;                L 351.12 731.50&#xA;                L 451.43999999999994 710.60 L 451.43999999999994 710.60&#xA;                L 531.44 731.50&#xA;                L 601.92 710.60 L 601.92 710.60&#xA;                L 683.92 740.60&#xA;                L 752.4 710.60 L 752.4 710.60&#xA;                L 802.56 738.60&#xA;                L 902.88 710.60  V 752.40 H 0 V 710.60 Z" fill="#e2effa"/></svg>